<?xml version="1.0" standalone="no"?>
<!DOCTYPE svg PUBLIC "-//W3C//DTD SVG 20010904//EN"
 "http://www.w3.org/TR/2001/REC-SVG-20010904/DTD/svg10.dtd">
<svg version="1.0" xmlns="http://www.w3.org/2000/svg"
 width="900.000000pt" height="900.000000pt" viewBox="0 0 900.000000 900.000000"
 preserveAspectRatio="xMidYMid meet">

<g transform="translate(0.000000,900.000000) scale(0.100000,-0.100000)"
fill="#000000" stroke="none">
<path d="M0 4500 l0 -4500 4500 0 4500 0 0 4500 0 4500 -4500 0 -4500 0 0
-4500z m3650 854 c0 -3 -9 -44 -21 -91 -12 -50 -17 -89 -12 -94 5 -5 45 -12
88 -15 129 -11 134 -25 8 -20 l-113 5 -6 -27 c-53 -240 -134 -490 -220 -686
-24 -54 -42 -101 -40 -103 4 -4 222 226 319 337 68 79 214 273 307 409 92 135
104 103 36 -96 -57 -166 -135 -360 -196 -490 l-49 -103 46 35 c66 51 84 43 24
-11 -27 -25 -80 -83 -117 -130 -36 -47 -69 -83 -72 -80 -3 3 11 39 31 79 20
40 67 149 105 242 39 94 106 253 150 355 102 237 106 253 37 150 -153 -227
-321 -429 -537 -645 -66 -65 -127 -132 -136 -147 -9 -15 -20 -28 -24 -28 -17
0 -18 23 -1 48 27 40 57 117 128 322 74 215 179 560 172 566 -3 3 -22 -23 -43
-58 -127 -209 -421 -543 -614 -697 -198 -158 -390 -251 -519 -251 -95 0 -131
42 -96 110 16 30 87 74 108 67 7 -2 1 -9 -13 -17 -47 -24 -70 -52 -70 -85 0
-88 177 -67 362 44 245 148 593 499 804 812 30 45 53 84 50 86 -9 10 -489 84
-601 93 -182 16 -300 -7 -366 -70 -36 -34 -39 -42 -39 -89 0 -48 3 -56 47
-102 26 -28 60 -57 76 -66 48 -24 21 -27 -29 -2 -27 12 -69 44 -96 69 -46 45
-48 48 -48 103 0 49 4 61 31 91 91 104 363 113 884 30 l159 -26 17 21 c10 12
30 53 46 91 15 38 31 70 36 70 4 0 7 -3 7 -6z m1968 -331 c2 -24 -3 -39 -22
-58 -31 -31 -53 -33 -32 -3 20 28 21 64 2 71 -61 24 -162 -74 -236 -227 -72
-151 -71 -146 -11 -146 27 0 53 -4 56 -10 4 -6 -17 -10 -57 -10 l-63 -1 -69
-177 c-118 -301 -174 -402 -288 -514 -95 -93 -176 -132 -283 -136 -71 -3 -82
-2 -99 17 -26 29 -16 35 23 15 35 -18 100 -15 173 6 67 19 156 88 214 164 81
108 227 430 241 532 5 38 2 48 -18 70 -20 21 -21 27 -9 34 8 5 29 10 47 10 30
0 34 4 71 84 90 192 220 320 317 314 37 -3 40 -5 43 -35z m-452 -115 c-9 -13
-26 -40 -38 -60 -13 -21 -27 -36 -33 -35 -24 8 -13 38 26 76 47 44 71 55 45
19z m420 -9 c-15 -17 -34 -45 -42 -61 -8 -16 -21 -27 -27 -25 -20 7 -7 40 31
80 45 46 76 51 38 6z m-856 -209 c0 -18 -28 -99 -64 -182 -9 -21 -14 -38 -12
-38 2 0 30 32 62 72 70 85 152 154 167 139 7 -7 -4 -45 -35 -118 -57 -133
-110 -284 -103 -291 2 -3 11 1 20 8 29 24 30 -2 1 -26 -81 -70 -72 52 20 260
24 54 44 100 44 102 0 35 -134 -123 -212 -248 -53 -87 -78 -115 -78 -90 0 5
23 67 51 138 28 71 62 158 75 193 l24 63 -25 -6 c-34 -9 -31 0 8 24 41 25 57
25 57 0z m1401 -32 c-31 -55 -133 -308 -124 -308 3 0 18 11 35 25 60 51 50 23
-15 -43 -37 -37 -72 -74 -77 -82 -5 -8 -11 -12 -14 -9 -5 5 15 72 40 133 4 10
-20 -10 -53 -44 -46 -47 -66 -61 -84 -58 -50 7 -28 110 57 281 24 48 44 89 44
92 0 3 -8 5 -17 5 -10 0 0 9 22 19 22 10 43 16 47 14 4 -2 -14 -48 -41 -101
-71 -141 -118 -282 -96 -282 40 0 131 124 191 261 45 103 76 149 101 149 9 0
4 -17 -16 -52z m-1505 21 c9 -16 -7 -32 -19 -20 -17 17 -77 13 -122 -8 -60
-27 -130 -103 -170 -184 -39 -81 -57 -167 -34 -167 23 0 141 132 179 199 43
77 78 121 94 121 9 0 6 -15 -10 -48 -24 -50 -86 -201 -109 -265 l-14 -37 42 6
42 5 -49 -28 c-41 -24 -55 -40 -93 -113 -88 -166 -156 -250 -204 -250 -19 0
-21 4 -17 38 11 80 87 194 177 265 36 28 50 51 78 118 18 46 33 86 33 90 0 5
-28 -21 -63 -57 -72 -73 -108 -84 -129 -38 -17 38 12 144 60 213 37 54 109
119 165 148 54 27 149 35 163 12z m395 -80 c-33 -72 -101 -250 -101 -265 0 -2
11 3 25 12 48 32 39 8 -22 -54 -33 -35 -63 -59 -66 -55 -10 16 108 353 137
391 7 9 6 16 -3 21 -9 6 -3 14 21 28 18 11 36 17 41 13 4 -3 -10 -45 -32 -91z
m433 19 c-15 -29 -44 -98 -65 -153 -20 -55 -41 -108 -45 -119 -7 -17 -5 -17
24 -2 17 9 32 16 34 16 2 0 -24 -29 -57 -66 -41 -44 -61 -60 -63 -49 -4 19 59
212 105 319 24 57 30 81 22 87 -8 4 2 14 27 27 50 26 55 12 18 -60z m384 55
c2 -13 -1 -23 -7 -23 -6 0 -11 7 -11 15 0 24 -55 18 -99 -9 -21 -14 -57 -46
-80 -73 -75 -88 -158 -293 -117 -293 17 0 95 80 140 143 18 26 53 85 77 132
41 83 59 103 59 68 0 -43 -195 -515 -250 -605 -17 -26 -30 -51 -30 -55 0 -15
82 74 113 121 17 27 33 43 35 37 7 -20 -64 -115 -134 -181 -38 -35 -74 -80
-87 -108 l-21 -47 -4 36 c-2 29 5 50 34 95 39 61 127 241 162 329 10 28 29 74
41 104 l22 54 -73 -77 c-80 -83 -112 -96 -124 -50 -20 79 38 225 122 310 92
92 224 135 232 77z m609 11 c18 -47 -66 -109 -135 -100 -40 5 -44 4 -62 -27
-33 -54 -80 -174 -86 -221 -6 -38 -4 -47 11 -52 38 -15 112 63 142 148 20 54
38 65 28 16 -10 -47 -65 -135 -101 -163 -75 -58 -124 -38 -124 49 1 112 114
296 215 349 41 22 104 22 112 1z m-2234 -6 c25 1 27 -2 21 -21 -6 -21 -65
-171 -104 -267 -10 -25 -17 -46 -15 -48 2 -2 22 11 44 29 71 56 55 25 -30 -60
-73 -73 -99 -92 -99 -75 0 3 16 44 36 92 58 138 58 142 22 97 -104 -129 -165
-169 -199 -129 -17 21 -1 100 36 179 51 107 187 226 240 209 11 -3 33 -6 48
-6z"/>
<path d="M5180 4616 c0 -14 5 -26 10 -26 6 0 10 7 10 15 0 8 0 18 1 22 0 4 -4
9 -10 11 -6 2 -11 -8 -11 -22z"/>
<path d="M4275 4128 c-44 -51 -105 -157 -105 -185 0 -25 28 -13 60 25 27 32
110 187 110 205 0 18 -23 2 -65 -45z"/>
<path d="M6355 4668 c-33 -18 -65 -50 -59 -59 18 -29 104 14 104 52 0 21 -15
24 -45 7z"/>
<path d="M4099 4645 c-82 -44 -225 -335 -165 -335 23 0 91 65 141 134 55 78
108 184 101 202 -7 18 -43 17 -77 -1z"/>
</g>
</svg>
